<?xml version="1.0" encoding="UTF-8" standalone="no"?>
<!-- Created with Inkscape (http://www.inkscape.org/) -->

<svg
   version="1.1"
   id="svg1164"
   width="149.76553"
   height="155.45602"
   viewBox="0 0 149.76554 155.45602"
   sodipodi:docname="logo_solved.svg"
   inkscape:export-filename="logo_solved.svg"
   inkscape:export-xdpi="96"
   inkscape:export-ydpi="96"
   xml:space="preserve"
   xmlns:inkscape="http://www.inkscape.org/namespaces/inkscape"
   xmlns:sodipodi="http://sodipodi.sourceforge.net/DTD/sodipodi-0.dtd"
   xmlns="http://www.w3.org/2000/svg"
   xmlns:svg="http://www.w3.org/2000/svg"><defs
     id="defs1168" /><sodipodi:namedview
     id="namedview1166"
     pagecolor="#ffffff"
     bordercolor="#000000"
     borderopacity="0.25"
     inkscape:showpageshadow="2"
     inkscape:pageopacity="0.0"
     inkscape:pagecheckerboard="0"
     inkscape:deskcolor="#d1d1d1"
     showgrid="false"
     inkscape:zoom="3.330368"
     inkscape:cx="96.686011"
     inkscape:cy="93.983607"
     inkscape:window-width="1920"
     inkscape:window-height="1017"
     inkscape:window-x="-8"
     inkscape:window-y="-8"
     inkscape:window-maximized="1"
     inkscape:current-layer="g1170" /><g
     inkscape:groupmode="layer"
     inkscape:label="Image"
     id="g1170"
     transform="translate(-28.069378,-6.5736753)"><g
       id="g4623"
       transform="translate(197.8767,57.01855)"><g
         id="g4561"
         transform="matrix(3.3525566,0,0,3.1239907,-178.34293,-50.444875)">
	<g
   id="g4559">
		<path
   d="m 47.159,25.238 c -0.039,-0.123 -0.088,-0.225 -0.146,-0.305 -0.058,-0.08 -0.121,-0.143 -0.19,-0.188 -0.068,-0.043 -0.133,-0.078 -0.19,-0.104 -0.058,-0.024 -0.106,-0.043 -0.146,-0.053 -0.039,-0.008 -0.06,-0.019 -0.06,-0.027 v -0.014 c 0,-0.004 0.033,-0.015 0.101,-0.026 0.067,-0.015 0.141,-0.054 0.219,-0.117 0.078,-0.066 0.15,-0.166 0.218,-0.304 0.067,-0.137 0.101,-0.332 0.101,-0.586 0,-0.102 -0.031,-0.223 -0.094,-0.367 -0.062,-0.143 -0.167,-0.279 -0.312,-0.408 -0.145,-0.129 -0.336,-0.238 -0.574,-0.33 -0.238,-0.09 -0.532,-0.135 -0.883,-0.135 -0.273,0 -0.529,0.033 -0.771,0.102 -0.239,0.066 -0.452,0.166 -0.638,0.301 -0.186,0.139 -0.33,0.313 -0.438,0.52 -0.105,0.209 -0.162,0.455 -0.166,0.742 h 1.303 c -0.006,-0.102 0.01,-0.189 0.045,-0.264 0.035,-0.075 0.082,-0.137 0.142,-0.188 0.06,-0.051 0.132,-0.088 0.216,-0.113 0.082,-0.025 0.17,-0.039 0.262,-0.039 0.07,0 0.143,0.008 0.219,0.025 0.076,0.016 0.145,0.039 0.205,0.072 0.06,0.031 0.109,0.076 0.148,0.131 0.041,0.057 0.059,0.121 0.059,0.195 0,0.092 -0.021,0.166 -0.062,0.225 -0.042,0.057 -0.095,0.104 -0.158,0.135 -0.065,0.033 -0.136,0.053 -0.211,0.062 -0.076,0.01 -0.152,0.014 -0.226,0.014 -0.093,0 -0.17,-0.004 -0.231,-0.01 -0.063,-0.008 -0.119,-0.014 -0.17,-0.018 v 0.941 c 0.051,-0.009 0.104,-0.017 0.162,-0.023 0.059,-0.006 0.137,-0.01 0.239,-0.01 0.078,0 0.157,0.006 0.235,0.018 0.078,0.012 0.147,0.035 0.207,0.072 0.061,0.037 0.108,0.088 0.146,0.152 0.038,0.063 0.057,0.149 0.057,0.256 0,0.199 -0.059,0.34 -0.174,0.42 -0.115,0.08 -0.273,0.121 -0.471,0.121 -0.121,0 -0.23,-0.017 -0.33,-0.049 -0.1,-0.031 -0.182,-0.089 -0.246,-0.166 -0.134,-0.125 -0.197,-0.316 -0.188,-0.576 h -1.316 c -0.005,0.061 -0.006,0.147 -0.004,0.264 0.002,0.115 0.023,0.244 0.062,0.385 0.041,0.141 0.103,0.285 0.188,0.43 0.085,0.146 0.208,0.279 0.368,0.398 0.159,0.121 0.364,0.219 0.612,0.295 0.25,0.076 0.555,0.115 0.916,0.115 0.393,0 0.719,-0.053 0.98,-0.156 0.261,-0.103 0.469,-0.232 0.624,-0.385 0.155,-0.153 0.263,-0.316 0.326,-0.492 0.063,-0.176 0.094,-0.338 0.094,-0.484 10e-4,-0.179 -0.02,-0.329 -0.059,-0.454 z"
   id="path4543" />
		<path
   d="M 31.403,3.702 H 29.22 V 3.694 C 29.446,3.555 29.684,3.423 29.933,3.294 30.183,3.163 30.412,3.019 30.62,2.86 30.827,2.7 30.999,2.514 31.133,2.301 31.267,2.088 31.334,1.828 31.334,1.518 31.334,1.264 31.286,1.041 31.192,0.85 31.096,0.659 30.963,0.5 30.79,0.375 30.616,0.25 30.409,0.156 30.166,0.094 29.924,0.031 29.657,0 29.366,0 29.042,0 28.75,0.047 28.489,0.139 28.227,0.233 28.008,0.368 27.827,0.543 27.647,0.721 27.513,0.939 27.425,1.199 27.337,1.457 27.302,1.754 27.321,2.086 h 1.303 c -0.01,-0.295 0.041,-0.535 0.148,-0.717 0.108,-0.182 0.301,-0.273 0.58,-0.273 0.161,0 0.299,0.043 0.412,0.127 0.113,0.086 0.169,0.24 0.169,0.463 0,0.086 -0.021,0.166 -0.065,0.234 -0.043,0.068 -0.1,0.131 -0.166,0.188 C 29.635,2.163 29.563,2.213 29.487,2.26 29.411,2.305 29.342,2.348 29.282,2.385 29.13,2.477 28.972,2.571 28.811,2.664 28.649,2.76 28.493,2.859 28.343,2.963 28.193,3.067 28.052,3.178 27.921,3.299 27.789,3.42 27.672,3.549 27.57,3.688 27.451,3.848 27.359,4.03 27.297,4.227 27.235,4.426 27.21,4.643 27.224,4.879 h 4.179 z"
   id="path4545" />
		<path
   d="m 28.243,45.828 c 0.162,0 0.285,0.029 0.375,0.084 0.101,0.074 0.168,0.162 0.199,0.265 h 1.27 c -0.079,-0.478 -0.27,-0.819 -0.575,-1.028 -0.305,-0.212 -0.718,-0.314 -1.239,-0.314 -0.266,0 -0.496,0.045 -0.711,0.111 v 1.371 c 0.028,-0.058 0.049,-0.119 0.086,-0.17 0.069,-0.097 0.152,-0.173 0.25,-0.229 0.095,-0.059 0.21,-0.09 0.345,-0.09 z"
   id="path4547" />
		<path
   d="m 29.678,46.863 c -0.144,-0.136 -0.313,-0.236 -0.513,-0.31 -0.199,-0.069 -0.413,-0.106 -0.645,-0.106 -0.222,0 -0.423,0.024 -0.603,0.076 -0.124,0.034 -0.242,0.102 -0.356,0.182 v 1.025 c 0.03,-0.064 0.067,-0.125 0.121,-0.179 0.125,-0.121 0.282,-0.185 0.471,-0.185 0.217,0 0.39,0.064 0.517,0.191 0.127,0.127 0.19,0.275 0.19,0.447 0,0.184 -0.065,0.34 -0.197,0.471 -0.133,0.129 -0.303,0.193 -0.51,0.193 -0.194,0 -0.354,-0.062 -0.476,-0.188 -0.052,-0.054 -0.088,-0.115 -0.118,-0.183 v 1.39 c 0.182,0.045 0.375,0.075 0.594,0.075 0.287,0 0.551,-0.037 0.793,-0.11 0.242,-0.074 0.451,-0.187 0.627,-0.336 0.176,-0.15 0.313,-0.336 0.412,-0.56 0.101,-0.222 0.149,-0.479 0.149,-0.774 0,-0.236 -0.04,-0.447 -0.121,-0.638 -0.081,-0.191 -0.192,-0.348 -0.335,-0.481 z"
   id="path4549" />
		<path
   d="M 24.653,14.501 H 24.02 v 0.326 h 0.151 c 0,0 0.009,0.07 0.022,0.16 l 0.387,-0.031 0.243,-0.15 0.063,-0.305 0.314,-0.027 0.123,-0.256 -0.287,-0.059 -0.253,0.004 z"
   id="path4551" />
		<polygon
   points="23.152,14.757 23.127,15.077 23.587,15.038 23.633,14.718 23.357,14.501 "
   id="polygon4553" />
		<path
   d="m 26.776,36.259 v -7.207 l -1.101,-0.42 -0.073,-1.101 -0.515,-0.899 -1.394,-0.021 -0.808,-1.266 -0.716,-0.35 -0.037,0.388 -1.302,0.077 -0.478,-0.664 -1.358,-0.274 -1.12,1.293 -1.763,-0.3 -0.127,-1.986 -1.286,-0.219 0.514,-0.975 -0.147,-0.561 -1.69,1.131 -1.063,-0.129 -0.379,-0.832 0.232,-0.855 0.586,-1.08 1.35,-0.684 2.606,-0.002 -0.007,0.795 0.936,0.436 -0.075,-1.357 0.675,-0.68 1.362,-0.893 0.093,-0.631 1.358,-1.414 1.445,-0.799 -0.128,-0.105 0.979,-0.92 0.359,0.094 0.164,0.207 0.372,-0.412 0.091,-0.041 -0.408,-0.055 -0.412,-0.139 v -0.4 l 0.218,-0.178 h 0.483 l 0.221,0.098 0.191,0.385 0.234,-0.035 v -0.035 l 0.068,0.023 0.677,-0.105 0.096,-0.33 0.387,0.098 v 0.357 l -0.359,0.248 h 0.001 l 0.052,0.393 1,0.307 v -0.713 l -0.44,-0.199 -0.056,-0.256 0.496,-0.168 v -1.092 l -0.496,-0.301 -0.055,-1.303 -1.156,0.568 H 24.649 L 24.76,9.779 23.184,9.407 22.534,9.899 v 1.502 l -1.171,0.369 -0.469,0.979 -0.508,0.082 v -1.252 l -1.102,-0.152 -0.55,-0.359 -0.221,-0.811 1.969,-1.152 0.964,-0.293 0.097,0.648 0.537,-0.029 0.042,-0.326 0.561,-0.08 0.01,-0.113 -0.241,-0.1 -0.055,-0.344 0.69,-0.059 0.417,-0.434 0.022,-0.031 0.006,0.002 0.128,-0.131 1.45,-0.184 0.641,0.545 -1.682,0.896 2.14,0.504 0.277,-0.715 h 0.293 V 7.144 L 25.017,6.363 23.583,6.53 22.775,6.952 22.83,7.979 21.986,7.852 21.856,7.284 22.665,6.55 21.196,6.476 l -0.422,0.127 -0.183,0.496 0.55,0.094 -0.11,0.549 -0.936,0.057 -0.147,0.365 -1.357,0.037 c 0,0 -0.037,-0.77 -0.093,-0.77 -0.054,0 1.064,-0.02 1.064,-0.02 L 20.371,6.622 19.929,6.401 19.342,6.971 18.367,6.916 17.781,6.107 H 16.533 L 15.23,7.08 h 1.195 L 16.533,7.43 16.222,7.723 17.543,7.76 17.745,8.237 16.257,8.182 16.184,7.815 15.248,7.614 14.752,7.337 13.638,7.347 c 3.647,-2.656 8.131,-4.23 12.979,-4.23 0.054,0 0.105,0.008 0.158,0.008 V 1.144 c -0.053,0 -0.104,-0.008 -0.158,-0.008 -6.281,0 -12.006,2.422 -16.297,6.377 -1,0.922 -1.919,1.928 -2.752,3.006 -3.145,4.066 -5.022,9.162 -5.022,14.689 0,13.271 10.799,24.069 24.07,24.069 0.055,0 0.106,-0.006 0.16,-0.006 v -1.979 c -0.054,0.002 -0.105,0.006 -0.16,0.006 -12.18,0 -22.09,-9.91 -22.09,-22.09 0,-3.066 0.63,-5.99 1.764,-8.646 v -0.688 l 0.791,-0.961 c 0.273,-0.518 0.568,-1.021 0.882,-1.514 l 0.035,0.4 -0.917,1.113 C 6.797,15.451 6.531,15.998 6.29,16.56 v 1.258 l 0.918,0.441 v 1.748 l 0.88,1.502 0.716,0.109 0.092,-0.514 -0.844,-1.305 -0.166,-1.266 h 0.497 l 0.21,1.303 1.22,1.781 -0.315,0.576 0.775,1.186 1.928,0.477 v -0.311 l 0.771,0.109 -0.072,0.551 0.605,0.111 0.936,0.256 1.323,1.506 1.688,0.127 0.165,1.377 -1.156,0.809 -0.054,1.23 -0.166,0.752 1.671,2.094 0.128,0.715 c 0,0 0.605,0.164 0.679,0.164 0.074,0 1.359,0.975 1.359,0.975 v 3.781 l 0.458,0.129 -0.313,1.744 0.771,1.027 -0.142,1.729 1.019,1.791 1.308,1.144 1.315,0.024 0.128,-0.424 -0.965,-0.812 0.055,-0.404 0.173,-0.496 0.037,-0.504 -0.652,-0.018 -0.33,-0.416 0.543,-0.521 0.073,-0.395 -0.606,-0.174 0.037,-0.367 0.863,-0.131 1.313,-0.631 0.442,-0.808 1.174,-1.506 0.201,-0.259 -0.201,-0.889 v -0.677 h -0.003 z m -7.59,-20.59 -0.316,0.315 h -0.703 l 0.11,-0.48 0.332,-0.027 0.068,-0.166 0.509,-0.07 z m 0.166,-0.869 -0.332,0.213 -0.412,0.078 c 0,0 0,-0.662 0,-0.73 h 0.743 V 14.8 Z m 0.626,-0.508 0.337,0.209 -0.27,0.223 -0.268,-0.223 z m -0.448,0.549 h 0.056 l 0.839,0.25 v 0.426 H 19.723 L 19.53,15.24 Z m -0.551,-1.184 0.455,0.414 -0.455,0.109 z m -1.928,0.071 0.634,-0.264 h 0.869 v 0.264 h 0.191 v 0.453 h -1.321 l -0.496,-0.139 z m -0.123,1.181 0.51,-0.549 h 0.729 l -0.936,1.309 -0.386,-0.209 z m -0.673,-3.111 0.522,0.125 -0.18,0.701 -0.564,0.18 -0.356,-0.73 z M 13.637,8.468 V 8.427 h 0.482 l 0.042,-0.166 h 0.79 v 0.344 l -0.227,0.303 h -1.087 z m 0.771,1.072 c 0,0 0.483,-0.08 0.524,-0.08 0.042,0 0,0.48 0,0.48 L 13.845,10.008 13.638,9.76 Z"
   id="path4555" />
		<path
   d="m 40.327,8.613 -13.43,14.851 c -0.107,-0.02 -0.217,-0.033 -0.33,-0.033 -1.03,0 -1.864,0.834 -1.864,1.863 0,1.026 0.834,1.86 1.864,1.86 0.772,0 1.437,-0.471 1.717,-1.143 L 39.745,26.042 39.733,24.806 28.346,24.775 C 28.274,24.523 28.151,24.296 27.987,24.101 L 41.243,9.444 Z"
   id="path4557" />
	</g>
</g><g
         id="g4563">
</g><g
         id="g4565">
</g><g
         id="g4567">
</g><g
         id="g4569">
</g><g
         id="g4571">
</g><g
         id="g4573">
</g><g
         id="g4575">
</g><g
         id="g4577">
</g><g
         id="g4579">
</g><g
         id="g4581">
</g><g
         id="g4583">
</g><g
         id="g4585">
</g><g
         id="g4587">
</g><g
         id="g4589">
</g><g
         id="g4591">
</g><path
         style="fill:#e6e6e6;stroke-width:0.300267"
         d="M 95.600854,90.369043 C 93.868142,89.827009 91.856872,87.750284 91.566716,86.203617 90.926318,82.79 93.362718,79.842795 97.105665,79.503397 l 1.810877,-0.164204 22.253338,-22.929705 c 12.23934,-12.611338 22.41196,-22.92408 22.60584,-22.917206 0.19387,0.0069 0.87961,0.477986 1.52387,1.046914 l 1.17138,1.034414 -4.47431,4.590065 c -15.6548,16.059776 -39.61952,40.838631 -39.69297,41.041422 -0.0481,0.13271 0.20173,0.731343 0.55512,1.330292 l 0.64253,1.089003 h 19.0373 19.0373 v 1.801602 1.801603 l -19.14202,9e-6 -19.14203,9e-6 -0.83911,1.051647 c -1.59913,2.004168 -4.397402,2.857618 -6.851926,2.089781 z"
         id="path4627"
         transform="translate(-186.80629,-56.491388)" /><path
         style="fill:#e6e6e6;stroke-width:0.300267"
         d="M 92.482272,159.69758 C 71.08633,158.02818 52.672428,149.78679 38.584324,135.57482 24.723255,121.59187 17.265359,103.8385 17.265359,84.82546 c 0,-16.439276 5.452119,-31.692972 16.098645,-45.040067 C 35.811,36.717699 41.481973,31.010601 44.589667,28.488221 58.574746,17.137141 75.540726,10.744492 94.035247,9.8575104 l 4.001966,-0.1919308 v 3.0039884 3.003987 L 93.45814,15.86006 c -11.107878,0.452423 -21.951941,3.36855 -31.903381,8.579287 -4.011758,2.100623 -7.356545,4.185254 -7.356545,4.584952 0,0.180135 0.613671,0.219875 1.576403,0.102085 1.235163,-0.151122 1.871652,-0.06123 2.940359,0.415282 0.750179,0.334485 1.920746,0.697188 2.601262,0.806007 0.822387,0.131505 1.28394,0.376183 1.376371,0.72964 0.112453,0.430027 0.60914,0.573399 2.595611,0.749242 1.351097,0.119599 2.538284,0.135713 2.638189,0.03581 0.0999,-0.0999 0.02747,-0.520017 -0.160961,-0.933582 -0.319205,-0.700576 -0.491739,-0.752589 -2.525979,-0.761486 -1.850213,-0.0081 -2.105389,-0.06881 -1.672293,-0.397917 0.323246,-0.245633 0.449617,-0.623402 0.343845,-1.027875 -0.144089,-0.551008 -0.42114,-0.651765 -2.001998,-0.728085 l -1.834764,-0.08858 1.962251,-1.276136 c 1.808068,-1.175861 2.118757,-1.276135 3.953972,-1.276135 1.952556,0 2.010141,0.02292 2.928499,1.165697 0.848675,1.05606 1.097113,1.179349 2.641489,1.310854 1.535992,0.130791 1.813229,0.05981 2.801234,-0.717183 0.688263,-0.54127 1.283203,-0.790705 1.59791,-0.66994 0.419473,0.160966 0.316223,0.382022 -0.631996,1.353088 -1.078551,1.104535 -1.224862,1.16069 -3.024182,1.16069 -2.036016,0 -2.052524,0.0171 -1.70313,1.764069 l 0.187666,0.938335 h 2.392715 c 2.14019,0 2.409289,-0.06338 2.549757,-0.600535 0.131968,-0.504639 0.409571,-0.600534 1.738472,-0.600534 1.386177,0 1.60378,-0.08341 1.762481,-0.675601 0.302188,-1.127604 0.220399,-1.353349 -0.561413,-1.549571 -0.412867,-0.103624 -0.750668,-0.361488 -0.750668,-0.573033 0,-0.865006 0.751149,-1.105201 3.438059,-1.09939 l 2.717417,0.0059 -1.275697,1.069597 c -1.083619,0.908549 -1.247321,1.190231 -1.087234,1.870792 0.258464,1.098789 0.363239,1.173175 1.987597,1.411122 l 1.426269,0.208929 v -1.67946 c 0,-1.65048 0.02024,-1.689791 1.173444,-2.278107 0.6537,-0.333492 2.216395,-0.70554 3.528139,-0.839983 2.293647,-0.23508 2.430593,-0.211016 5.282299,0.92822 l 2.927604,1.169557 v 2.516861 c 0,2.043039 -0.08525,2.516862 -0.452833,2.516862 -0.249056,0 -0.661542,0.52162 -0.916634,1.159156 l -0.463802,1.159155 -2.46137,-0.559078 c -1.353755,-0.307493 -2.799171,-0.639484 -3.212039,-0.737756 -0.65315,-0.155466 -0.404502,-0.353301 1.914029,-1.522889 l 2.664697,-1.344212 -1.013228,-0.887168 c -1.003571,-0.878713 -1.038984,-0.885438 -3.715631,-0.7057 -2.561996,0.17204 -2.757665,0.234879 -3.765998,1.209447 -0.828867,0.801107 -1.313771,1.027977 -2.197172,1.027977 -1.037852,0 -1.115772,0.05705 -0.922739,0.675601 0.115963,0.37158 0.345737,0.762254 0.510613,0.868163 0.164877,0.105909 -0.123575,0.285545 -0.641004,0.399191 -0.517429,0.113647 -0.940779,0.382823 -0.940779,0.598169 0,0.215346 -0.331029,0.454819 -0.735624,0.532162 -0.76497,0.146233 -1.065979,-0.219795 -1.065979,-1.296241 0,-0.316787 -0.1689,-0.574514 -0.375333,-0.572727 -0.953135,0.0083 -3.437693,0.989707 -5.989167,2.365847 -4.10476,2.213907 -3.974522,2.081934 -3.527376,3.574374 0.474737,1.584535 1.395404,2.205298 3.886534,2.620517 l 1.951736,0.325312 0.08738,1.949361 0.08738,1.949362 0.989362,-0.115501 c 0.853434,-0.09963 1.095287,-0.331477 1.760325,-1.687465 0.750193,-1.529615 0.824323,-1.586408 2.751666,-2.108116 l 1.9807,-0.536148 v -2.353513 c 0,-2.317872 0.01525,-2.365158 1.008213,-3.122515 l 1.008216,-0.769002 2.369789,0.542161 2.369792,0.54216 v 1.563295 c 0,1.537588 0.0148,1.563237 0.900801,1.559829 0.495441,-0.0018 1.623599,-0.339945 2.507021,-0.751199 0.883418,-0.411254 1.641593,-0.747735 1.684831,-0.747735 0.04324,0 0.154662,0.838674 0.24761,1.863719 0.14066,1.551234 0.298687,1.958192 0.942505,2.427182 0.663254,0.483145 0.773509,0.790649 0.773509,2.157336 0,1.44971 -0.0679,1.610915 -0.750668,1.782277 -0.481607,0.120879 -0.750667,0.399553 -0.750667,0.7775 0,0.377946 0.26906,0.656621 0.750667,0.777499 0.616125,0.154635 0.750668,0.370932 0.750668,1.206789 0,0.560109 -0.03378,1.016332 -0.07507,1.013825 -0.04129,-0.0024 -0.683107,-0.186124 -1.426268,-0.408036 -1.431965,-0.427593 -1.949328,-1.26456 -1.081785,-1.750062 0.271886,-0.152154 0.48125,-0.654717 0.48125,-1.155203 0,-0.704991 -0.131192,-0.885881 -0.642499,-0.885881 -0.353373,0 -0.792513,0.201699 -0.975868,0.448218 -0.183352,0.246522 -0.97153,0.566193 -1.7515,0.710384 -1.311057,0.242367 -1.454056,0.207334 -1.893911,-0.463967 -0.409285,-0.624652 -0.672695,-0.713438 -1.884807,-0.635317 -1.346154,0.08676 -1.413204,0.134069 -1.502633,1.060171 -0.08917,0.923451 -0.03536,0.97867 1.136316,1.166027 1.151386,0.184115 1.199372,0.230431 0.751494,0.725332 -0.432352,0.477743 -0.563079,0.486426 -1.357376,0.09018 -0.732192,-0.365263 -0.972778,-0.372478 -1.440922,-0.04321 -1.016845,0.715192 -3.049512,2.640814 -3.049512,2.888918 0,0.133769 -1.047182,0.803179 -2.327071,1.487578 -2.793811,1.493943 -6.50931,5.078213 -6.821039,6.580125 -0.163498,0.787739 -0.57166,1.171631 -2.355901,2.215828 -1.18698,0.694659 -2.725342,1.807193 -3.41858,2.472303 l -1.260441,1.20929 0.177857,1.904624 c 0.09782,1.047545 0.09349,1.904624 -0.0096,1.904624 -0.103112,0 -0.730691,-0.217351 -1.394621,-0.483003 -1.152764,-0.461247 -1.207146,-0.542406 -1.207146,-1.801603 l -1.2e-5,-1.318599 h -4.472842 -4.472842 l -2.307844,1.09599 c -2.573439,1.222123 -3.364478,2.15496 -4.529205,5.341112 l -0.651778,1.782965 0.585867,1.409746 c 0.515075,1.239415 0.718839,1.431733 1.686444,1.591737 2.357943,0.389908 3.001046,0.226974 5.684903,-1.44031 2.591996,-1.610212 2.624824,-1.620959 2.860462,-0.936353 0.178923,0.519838 0.01042,1.079142 -0.675601,2.242656 -0.502687,0.852558 -0.913974,1.594311 -0.913974,1.648341 0,0.05403 0.709381,0.190756 1.576402,0.30384 2.842587,0.370749 2.92737,0.417945 2.929739,1.63085 0.0012,0.601396 0.08644,1.985828 0.189469,3.076516 l 0.187336,1.983063 3.0384,0.467594 3.038403,0.467594 1.864218,-2.034022 1.86422,-2.034021 2.252553,0.448215 c 2.020449,0.402033 2.323395,0.555199 2.940056,1.486475 l 0.687501,1.038261 2.203435,-0.155425 c 1.590182,-0.112171 2.30658,-0.296484 2.574037,-0.662254 0.345662,-0.472722 0.435123,-0.473458 1.329553,-0.01093 0.548393,0.283585 1.503233,1.324449 2.23024,2.431164 l 1.271283,1.93527 2.402137,0.0086 2.402137,0.0086 0.729348,1.273823 c 0.401142,0.700604 0.874063,2.141685 1.050935,3.202409 l 0.321586,1.928583 1.726536,0.573642 1.726536,0.573642 v 12.1209 c 0,7.56932 0.122164,12.69065 0.325316,13.63792 l 0.325318,1.5169 -2.265446,2.71515 c -1.245995,1.49333 -2.574689,3.26768 -2.952653,3.94299 -0.566016,1.01131 -1.074806,1.40474 -2.885011,2.2309 -1.208792,0.55168 -2.851268,1.08974 -3.649945,1.19569 -1.229411,0.16309 -1.473576,0.30476 -1.591882,0.92363 -0.117542,0.61489 0.0012,0.75919 0.748149,0.90857 1.357171,0.27143 1.391834,0.94276 0.109366,2.11805 l -1.126869,1.0327 0.678961,0.72272 c 0.453256,0.48247 1.010921,0.72272 1.677553,0.72272 1.158539,0 1.18868,0.14172 0.550888,2.59036 -0.246237,0.94537 -0.415137,1.73543 -0.375334,1.75568 0.03981,0.0202 0.768678,0.60619 1.619716,1.30209 1.051503,0.85982 1.503807,1.4325 1.411481,1.78711 -0.118137,0.45376 -0.423119,0.50225 -2.337703,0.37171 -2.122213,-0.14471 -2.276421,-0.20898 -4.264018,-1.77716 -1.61659,-1.27546 -2.434893,-2.23524 -3.787098,-4.44187 l -1.72492,-2.81484 0.239261,-2.72713 0.239259,-2.72712 -1.289896,-1.56683 -1.2899,-1.56682 0.48758,-2.43098 c 0.536007,-2.67239 0.43645,-3.36809 -0.481983,-3.36809 -0.592676,0 -0.609956,-0.16938 -0.609956,-5.97898 v -5.97899 l -1.986502,-1.41754 c -1.092575,-0.77964 -2.608228,-1.57614 -3.368117,-1.76999 -1.265349,-0.32279 -1.401551,-0.44839 -1.618497,-1.49257 -0.169518,-0.8159 -1.012605,-2.04238 -2.964765,-4.31301 -2.472631,-2.87601 -2.710454,-3.25941 -2.541614,-4.09746 0.102448,-0.508509 0.26858,-1.89132 0.369181,-3.072913 l 0.182917,-2.148351 1.935735,-1.234089 1.935738,-1.234086 -0.195618,-1.271703 C 67.068606,87.81861 67.104127,87.902084 66.14396,87.710051 65.642949,87.609849 64.407221,87.527864 63.3979,87.527864 h -1.83513 l -2.406143,-2.513791 -2.406142,-2.513788 -2.423216,-0.502395 -2.423216,-0.502392 0.130226,-0.88729 c 0.107004,-0.72906 0.02375,-0.887289 -0.466855,-0.887289 -0.328396,0 -1.019332,-0.08445 -1.535416,-0.187667 -0.761994,-0.152397 -0.938335,-0.08993 -0.938335,0.332393 0,0.287181 -0.168071,0.460183 -0.375334,0.386348 -0.206433,-0.07354 -1.570436,-0.391495 -3.031117,-0.706562 l -2.655784,-0.572853 -1.262564,-1.806112 -1.262564,-1.806116 0.538796,-0.922544 0.538795,-0.922543 -2.076637,-2.772796 c -1.864953,-2.490151 -2.112424,-2.98497 -2.427719,-4.85425 l -0.351083,-2.081455 h -1.047663 c -0.98101,0 -1.037616,0.05253 -0.889744,0.825735 0.08685,0.454154 0.246931,1.413864 0.355724,2.132686 0.125662,0.83028 0.679094,1.995443 1.517409,3.194662 0.773732,1.106835 1.319602,2.225793 1.319602,2.705004 0,0.781643 -0.04912,0.808121 -1.126002,0.606966 -0.619301,-0.115684 -1.143919,-0.232061 -1.165818,-0.258617 -0.0219,-0.02654 -0.663721,-1.017791 -1.426269,-2.202739 L 32.879249,68.656013 V 65.809694 62.963378 L 31.22778,62.278883 29.576311,61.594385 v -1.77372 c 0,-1.514166 0.197529,-2.156173 1.349874,-4.387326 0.742431,-1.437481 2.035227,-3.382551 2.87288,-4.322378 1.183442,-1.327793 1.501699,-1.893797 1.427444,-2.538632 -0.08547,-0.742246 -0.306733,-0.512848 -2.095743,2.172814 -1.100098,1.651469 -2.417451,3.399531 -2.927451,3.884582 -0.726984,0.691422 -0.927271,1.134905 -0.927271,2.053191 0,0.685245 -0.571788,2.616975 -1.377936,4.655221 -5.312794,13.432747 -5.779822,29.320456 -1.271635,43.259443 3.221493,9.96063 8.330511,18.46407 15.685255,26.10652 13.50556,14.03388 31.686073,22.19113 51.446679,23.08314 l 4.278806,0.19314 v 2.95593 2.95593 l -2.176936,-0.0505 c -1.197316,-0.0278 -2.717418,-0.0926 -3.378005,-0.14418 z M 72.454455,55.639496 c 0.198176,-0.198176 0.36032,-0.738657 0.36032,-1.201068 0,-0.730238 -0.116074,-0.840748 -0.883079,-0.840748 -0.485694,0 -0.96659,0.13512 -1.068657,0.300267 -0.102067,0.165147 -0.447842,0.300267 -0.768389,0.300267 -0.320547,0 -0.582813,0.191631 -0.582813,0.425842 0,0.234215 -0.08201,0.639575 -0.182259,0.900802 -0.150935,0.393334 0.07096,0.474959 1.291149,0.474959 0.810376,0 1.635552,-0.162144 1.833728,-0.360321 z m -4.494834,-2.567283 1.512233,-2.026803 -1.370978,-0.09314 c -1.145918,-0.07785 -1.507395,0.03755 -2.201952,0.702976 -1.012537,0.970073 -1.34492,2.527676 -0.654786,3.068439 0.819666,0.642262 1.157292,0.43693 2.715483,-1.651469 z m 9.058894,0.839847 c 0,-0.768846 -0.149647,-0.928246 -1.126002,-1.199393 -1.680895,-0.466807 -2.176936,-0.401058 -2.176936,0.288554 0,1.209629 0.661957,1.797528 2.023965,1.797528 1.216379,0 1.278973,-0.0434 1.278973,-0.886689 z m -4.007158,-1.25373 c 0.222174,-0.184388 0.403953,-0.656507 0.403953,-1.049151 0,-0.645928 -0.128656,-0.713903 -1.351202,-0.713903 h -1.351202 v 1.238602 c 0,1.229579 0.0069,1.237221 0.947249,1.049151 0.520988,-0.104195 1.129029,-0.340311 1.351202,-0.524699 z m 3.389244,-0.991446 c 0.285476,-0.34398 0.229209,-0.497542 -0.282695,-0.771506 -0.83531,-0.447044 -1.706175,0.142183 -1.168198,0.790405 0.439621,0.529708 1.001667,0.522387 1.450893,-0.01889 z M 71.31344,49.694208 c 0,-0.495441 -0.13512,-0.900802 -0.300267,-0.900802 -0.165147,0 -0.300267,-0.20268 -0.300267,-0.4504 0,-0.336693 -0.357537,-0.450401 -1.416231,-0.450401 -1.670677,0 -3.988577,0.808938 -3.988577,1.391996 0,0.225285 -0.008,0.510947 -0.01772,0.634807 -0.03038,0.386101 1.277384,0.614563 3.695994,0.64567 l 2.327064,0.02993 z m 1.976295,0.600534 c 0.692689,0 0.489228,-0.514508 -0.47496,-1.201069 l -0.900801,-0.641427 v 1.103505 c 0,0.882894 0.09495,1.067072 0.47496,0.92125 0.261226,-0.100244 0.666587,-0.182259 0.900801,-0.182259 z m -9.10612,-4.760753 c 0.135015,-0.135015 0.324331,-0.731364 0.420702,-1.325214 0.169035,-1.041657 0.138173,-1.086679 -0.875228,-1.276796 -0.711492,-0.133475 -1.35343,-0.04038 -1.989435,0.288509 l -0.938995,0.485574 0.625162,1.22542 c 0.577672,1.132328 0.696845,1.211085 1.568737,1.036708 0.518963,-0.103793 1.054039,-0.299183 1.189057,-0.434201 z m -5.481394,-9.051534 c 0,-0.753116 -0.119317,-0.900802 -0.72776,-0.900802 -1.289849,0 -3.776247,0.692973 -3.776247,1.052461 0,0.633323 0.379115,0.749142 2.452183,0.749142 h 2.051824 z m -0.31083,-2.982932 c 0.170957,-0.319437 0.31083,-0.859917 0.31083,-1.201068 0,-0.544151 -0.184253,-0.620274 -1.501336,-0.620274 -0.825734,0 -1.501335,0.13512 -1.501335,0.300267 0,0.165147 -0.405361,0.300267 -0.900801,0.300267 -0.800714,0 -0.900802,0.100089 -0.900802,0.900801 v 0.900802 h 2.091307 c 1.760301,0 2.140502,-0.09193 2.402137,-0.580795 z"
         id="path4629"
         transform="translate(-186.80629,-56.491388)" /><path
         style="fill:#e6e6e6;stroke-width:0.300267"
         d="m 99.84541,20.643364 c 0.0245,-1.952268 2.1967,-4.380357 5.58299,-6.240669 2.77972,-1.527083 3.41843,-2.140882 3.41843,-3.285099 0,-1.239978 -0.47535,-1.6591819 -1.8814,-1.6591819 -1.68772,0 -2.28857,0.4337485 -2.50882,1.8110789 l -0.19054,1.191592 h -2.06349 c -1.94365,0 -2.06273,-0.03924 -2.05032,-0.675601 0.0194,-0.991543 0.74834,-2.8764776 1.38454,-3.5799662 1.20378,-1.3310897 2.80536,-1.876758 5.50843,-1.876758 3.82114,0 5.77944,1.2047018 6.20321,3.8160602 0.38967,2.401281 -0.92127,4.103771 -4.68146,6.079693 -1.16726,0.613378 -2.12229,1.233616 -2.12229,1.378307 0,0.14469 1.62144,0.263073 3.60321,0.263073 h 3.6032 v 1.65147 1.651469 h -6.90614 c -6.37961,0 -6.905641,-0.04006 -6.89955,-0.525468 z"
         id="path4631"
         transform="translate(-186.80629,-56.491388)" /><path
         style="fill:#e6e6e6;stroke-width:0.300267"
         d="m 156.4525,90.35359 c -1.98491,-0.726791 -3.4664,-2.571991 -3.4664,-4.317417 0,-0.555281 0.1891,-0.610179 2.10187,-0.610179 1.84283,0 2.10186,0.06827 2.10186,0.553997 0,1.390961 2.66828,2.333055 4.0478,1.429162 0.56592,-0.370809 0.75648,-0.755992 0.75648,-1.529115 0,-1.205281 -0.60669,-1.655112 -2.23226,-1.655112 -1.04895,0 -1.07068,-0.02438 -1.07068,-1.201069 0,-1.128422 0.0533,-1.201068 0.88125,-1.201068 1.61978,0 2.42169,-0.491191 2.42169,-1.483339 0,-1.059746 -0.67524,-1.519332 -2.23226,-1.519332 -1.03688,0 -2.27175,0.816091 -2.27175,1.501335 0,0.171293 -0.89381,0.300267 -2.08091,0.300267 h -2.08091 l 0.26892,-0.937642 c 0.67433,-2.351271 2.50901,-3.567777 5.72941,-3.798961 3.38703,-0.243145 6.18816,1.155086 6.74304,3.365898 0.23592,0.93998 -0.63016,2.891012 -1.36912,3.084256 -0.77009,0.201382 -0.77565,0.593814 -0.0118,0.836234 1.01446,0.321976 1.80953,1.628076 1.80831,2.970584 -0.003,2.884699 -2.5691,4.697281 -6.60475,4.664623 -1.2386,-0.01002 -2.78648,-0.213928 -3.43974,-0.453122 z"
         id="path4633"
         transform="translate(-186.80629,-56.491388)" /><path
         style="fill:#e6e6e6;stroke-width:0.300267"
         d="m 101.41522,161.19471 c -0.23363,-0.0943 -0.37534,-0.74887 -0.37534,-1.73382 v -1.58237 l 1.50967,0.14506 c 1.86288,0.179 2.69407,-0.41683 2.69407,-1.93122 0,-1.79966 -1.92216,-2.80486 -3.62294,-1.89463 -0.52922,0.28323 -0.5808,0.20418 -0.5808,-0.89024 0,-1.49686 0.66518,-1.92282 3.00268,-1.92282 4.71311,0 6.91125,4.58562 3.86257,8.05787 -1.27939,1.45714 -4.83922,2.41824 -6.48991,1.75217 z"
         id="path4635"
         transform="translate(-186.80629,-56.491388)" /><path
         style="fill:#e6e6e6;stroke-width:0.300267"
         d="m 104.79322,149.68316 c -0.66026,-0.72958 -2.1507,-0.78822 -3.10181,-0.12203 l -0.68317,0.47851 0.0909,-1.75464 0.0909,-1.75465 1.94156,-0.0911 c 3.14623,-0.14759 5.15451,0.94096 5.84622,3.16882 0.2025,0.65219 0.14305,0.6756 -1.71567,0.6756 -1.54409,0 -2.03307,-0.11894 -2.46891,-0.60053 z"
         id="path4637"
         transform="translate(-186.80629,-56.491388)" /></g></g></svg>
