<?xml version="1.0" encoding="UTF-8" standalone="no"?>
<!-- Created with Inkscape (http://www.inkscape.org/) -->

<svg
   width="16.549442"
   height="17.158133"
   viewBox="0 0 4.3787066 4.5397558"
   version="1.1"
   id="svg5"
   xml:space="preserve"
   inkscape:export-filename="icon_close.svg"
   inkscape:export-xdpi="96"
   inkscape:export-ydpi="96"
   sodipodi:docname="icon_exit.svg"
   xmlns:inkscape="http://www.inkscape.org/namespaces/inkscape"
   xmlns:sodipodi="http://sodipodi.sourceforge.net/DTD/sodipodi-0.dtd"
   xmlns="http://www.w3.org/2000/svg"
   xmlns:svg="http://www.w3.org/2000/svg"><sodipodi:namedview
     id="namedview7"
     pagecolor="#ffffff"
     bordercolor="#000000"
     borderopacity="0.25"
     inkscape:showpageshadow="2"
     inkscape:pageopacity="0.0"
     inkscape:pagecheckerboard="0"
     inkscape:deskcolor="#d1d1d1"
     inkscape:document-units="mm"
     showgrid="false" /><defs
     id="defs2" /><g
     inkscape:label="Camada 1"
     inkscape:groupmode="layer"
     id="layer1"
     transform="translate(-1.2941587,-0.8934222)"><g
       id="g65"
       transform="matrix(0.0750974,0,0,0.0803072,1.3385136,1.1594709)"><g
         id="g11">
	<path
   d="M 33.719493,24.95264 56.648012,2.722041 c 1.424524,-1.379985 1.424524,-3.61907198 0,-4.999056 -1.424524,-1.381163 -3.731475,-1.381163 -5.156,0 L 28.563493,19.953584 5.6337575,-2.277015 c -1.424524,-1.381163 -3.731471,-1.381163 -5.15599495,0 -1.424525,1.37998402 -1.424525,3.619071 0,4.999056 L 23.407493,24.95264 0.47776255,47.183239 c -1.424525,1.379985 -1.424525,3.619072 0,4.999056 0.71226195,0.689403 1.64573795,1.034694 2.57799895,1.034694 0.932258,0 1.865734,-0.345291 2.577996,-1.035872 L 28.563493,29.950518 51.492012,52.181117 c 0.712263,0.690581 1.645739,1.035872 2.578,1.035872 0.932261,0 1.865738,-0.345291 2.578,-1.035872 1.424524,-1.379985 1.424524,-3.619072 0,-4.999056 z"
   id="path9"
   style="stroke-width:1.19682" />
</g><g
         id="g13">
</g><g
         id="g15">
</g><g
         id="g17">
</g><g
         id="g19">
</g><g
         id="g21">
</g><g
         id="g23">
</g><g
         id="g25">
</g><g
         id="g27">
</g><g
         id="g29">
</g><g
         id="g31">
</g><g
         id="g33">
</g><g
         id="g35">
</g><g
         id="g37">
</g><g
         id="g39">
</g><g
         id="g41">
</g></g><path
       style="fill:#f9f9f9;stroke-width:0.0204996"
       d="M 0.80223138,17.115361 C 0.61757945,17.070666 0.45472417,16.972992 0.31219345,16.821455 -0.09305711,16.390598 -0.08870558,15.772565 0.32268669,15.331135 0.3932537,15.255416 1.8831409,13.708436 3.6335472,11.893402 5.3839535,10.078368 6.816104,8.5870125 6.816104,8.5792782 6.816104,8.571544 5.379341,7.0754725 3.6232974,5.2546748 1.8672538,3.4338772 0.3771565,1.8863858 0.31197017,1.8158051 -0.08995428,1.3806207 -0.08857006,0.76274402 0.31529118,0.33339354 0.70508994,-0.08100692 1.3111718,-0.09454531 1.7257533,0.30188726 1.7997234,0.37261919 3.299578,1.9226026 5.0587636,3.7462948 6.8179492,5.569987 8.2674168,7.0609289 8.2798026,7.0594992 8.2921885,7.0580704 8.4364022,6.9173911 8.600278,6.7468809 c 3.843646,-3.9992577 6.301464,-6.52950278 6.397801,-6.58633204 0.148553,-0.0876312 0.286678,-0.13110274 0.45859,-0.14432986 0.380579,-0.02928227 0.779376,0.20560568 0.959135,0.56492299 0.0938,0.18748737 0.124036,0.33709849 0.112296,0.55558591 -0.01086,0.2021316 -0.06438,0.3695472 -0.168061,0.5257007 -0.03873,0.058337 -1.544697,1.6346751 -3.346586,3.5029745 -1.801889,1.8682993 -3.2761615,3.4045167 -3.2761615,3.4138163 0,0.0093 1.4742485,1.5454126 3.2761085,3.4135836 1.80186,1.868172 3.307823,3.444441 3.346586,3.502822 0.103731,0.156231 0.157252,0.323618 0.168114,0.52578 0.01174,0.218487 -0.0185,0.368098 -0.112296,0.555585 -0.179686,0.359171 -0.578035,0.593875 -0.959182,0.565144 -0.173051,-0.01304 -0.354237,-0.07374 -0.488345,-0.163581 -0.0769,-0.05152 -3.3308,-3.407262 -6.3679886,-6.567301 C 8.436407,10.240741 8.2921885,10.100063 8.2798026,10.098633 8.2674168,10.097204 6.8179492,11.588146 5.0587636,13.411838 3.299578,15.23553 1.8011837,16.784111 1.7289985,16.853129 1.4654527,17.105111 1.1401569,17.197155 0.80223138,17.115361 Z"
       id="path197"
       transform="matrix(0.26458333,0,0,0.26458333,1.2941587,0.89342222)" /></g></svg>
