<?xml version="1.0" encoding="UTF-8" standalone="no"?>
<!-- Created with Inkscape (http://www.inkscape.org/) -->

<svg
   width="17.092377"
   height="17.190212"
   viewBox="0 0 4.5223579 4.5482436"
   version="1.1"
   id="svg5"
   xml:space="preserve"
   inkscape:export-filename="icon_chatbox_4.svg"
   inkscape:export-xdpi="96"
   inkscape:export-ydpi="96"
   xmlns:inkscape="http://www.inkscape.org/namespaces/inkscape"
   xmlns:sodipodi="http://sodipodi.sourceforge.net/DTD/sodipodi-0.dtd"
   xmlns="http://www.w3.org/2000/svg"
   xmlns:svg="http://www.w3.org/2000/svg"><sodipodi:namedview
     id="namedview7"
     pagecolor="#ffffff"
     bordercolor="#000000"
     borderopacity="0.25"
     inkscape:showpageshadow="2"
     inkscape:pageopacity="0.0"
     inkscape:pagecheckerboard="0"
     inkscape:deskcolor="#d1d1d1"
     inkscape:document-units="mm"
     showgrid="false" /><defs
     id="defs2" /><g
     inkscape:label="Camada 1"
     inkscape:groupmode="layer"
     id="layer1"
     transform="translate(-0.1375199,-0.090299)"><g
       id="g246"
       transform="matrix(0.01525421,0,0,0.01070175,-1.506353,-0.37522712)"><g
         id="Layer_1" /><g
         id="Layer_2"><g
           id="g229"><g
             id="g223"><path
               class="st0"
               d="m 256,224.9 c -47.7,0 -84.7,-53.77 -84.7,-100.02 0,-22.61 8.94,-43.42 25.18,-58.59 C 212.21,51.6 233.35,43.5 256,43.5 c 22.65,0 43.79,8.1 59.53,22.79 16.23,15.17 25.18,35.97 25.18,58.59 C 340.7,171.14 303.7,224.9 256,224.9 Z"
               id="path221" /></g><g
             id="g227"><path
               class="st0"
               d="m 402.95,385 c -3.25,27.82 -7.86,56.27 -15.15,83.5 H 124.21 c -7.3,-27.23 -11.91,-55.68 -15.17,-83.5 -2.61,-22.3 -1.88,-45.45 8.58,-66.14 9.48,-18.77 26.75,-34.62 47.6,-45.57 4.9,-2.57 9.98,-4.88 15.2,-6.92 23.18,13.99 49.07,21.53 75.58,21.53 26.51,0 52.4,-7.54 75.58,-21.53 5.22,2.04 10.3,4.35 15.2,6.92 20.86,10.95 38.12,26.8 47.6,45.57 10.46,20.69 11.19,43.84 8.57,66.14 z"
               id="path225" /></g></g></g></g></g><style
     type="text/css"
     id="style218">
	.st0{fill:#333333;}
	.st1{fill:none;stroke:#333333;stroke-width:32;stroke-linecap:round;stroke-linejoin:round;stroke-miterlimit:10;}
</style></svg>
