<?xml version="1.0" encoding="UTF-8" standalone="no"?>
<!-- Created with Inkscape (http://www.inkscape.org/) -->

<svg
   width="16.549444"
   height="17.158133"
   viewBox="0 0 4.3787071 4.5397558"
   version="1.1"
   id="svg5"
   xml:space="preserve"
   inkscape:export-filename="icon_close.svg"
   inkscape:export-xdpi="96"
   inkscape:export-ydpi="96"
   xmlns:inkscape="http://www.inkscape.org/namespaces/inkscape"
   xmlns:sodipodi="http://sodipodi.sourceforge.net/DTD/sodipodi-0.dtd"
   xmlns="http://www.w3.org/2000/svg"
   xmlns:svg="http://www.w3.org/2000/svg"><sodipodi:namedview
     id="namedview7"
     pagecolor="#ffffff"
     bordercolor="#000000"
     borderopacity="0.25"
     inkscape:showpageshadow="2"
     inkscape:pageopacity="0.0"
     inkscape:pagecheckerboard="0"
     inkscape:deskcolor="#d1d1d1"
     inkscape:document-units="mm"
     showgrid="false" /><defs
     id="defs2" /><g
     inkscape:label="Camada 1"
     inkscape:groupmode="layer"
     id="layer1"
     transform="translate(-0.24193336,-0.09069355)"><g
       id="g65"
       transform="matrix(0.0750974,0,0,0.0803072,0.28628822,0.35674225)"><g
         id="g11">
	<path
   d="M 33.719493,24.95264 56.648012,2.722041 c 1.424524,-1.379985 1.424524,-3.61907198 0,-4.999056 -1.424524,-1.381163 -3.731475,-1.381163 -5.156,0 L 28.563493,19.953584 5.6337575,-2.277015 c -1.424524,-1.381163 -3.731471,-1.381163 -5.15599495,0 -1.424525,1.37998402 -1.424525,3.619071 0,4.999056 L 23.407493,24.95264 0.47776255,47.183239 c -1.424525,1.379985 -1.424525,3.619072 0,4.999056 0.71226195,0.689403 1.64573795,1.034694 2.57799895,1.034694 0.932258,0 1.865734,-0.345291 2.577996,-1.035872 L 28.563493,29.950518 51.492012,52.181117 c 0.712263,0.690581 1.645739,1.035872 2.578,1.035872 0.932261,0 1.865738,-0.345291 2.578,-1.035872 1.424524,-1.379985 1.424524,-3.619072 0,-4.999056 z"
   id="path9"
   style="stroke-width:1.19682" />
</g><g
         id="g13">
</g><g
         id="g15">
</g><g
         id="g17">
</g><g
         id="g19">
</g><g
         id="g21">
</g><g
         id="g23">
</g><g
         id="g25">
</g><g
         id="g27">
</g><g
         id="g29">
</g><g
         id="g31">
</g><g
         id="g33">
</g><g
         id="g35">
</g><g
         id="g37">
</g><g
         id="g39">
</g><g
         id="g41">
</g></g></g></svg>
