<?xml version="1.0" encoding="UTF-8" standalone="no"?>
<!-- Created with Inkscape (http://www.inkscape.org/) -->

<svg
   width="17.381447"
   height="17.117632"
   viewBox="0 0 4.5988411 4.52904"
   version="1.1"
   id="svg5"
   xml:space="preserve"
   inkscape:export-filename="icon_chatbox_4.svg"
   inkscape:export-xdpi="96"
   inkscape:export-ydpi="96"
   xmlns:inkscape="http://www.inkscape.org/namespaces/inkscape"
   xmlns:sodipodi="http://sodipodi.sourceforge.net/DTD/sodipodi-0.dtd"
   xmlns="http://www.w3.org/2000/svg"
   xmlns:svg="http://www.w3.org/2000/svg"><sodipodi:namedview
     id="namedview7"
     pagecolor="#ffffff"
     bordercolor="#000000"
     borderopacity="0.25"
     inkscape:showpageshadow="2"
     inkscape:pageopacity="0.0"
     inkscape:pagecheckerboard="0"
     inkscape:deskcolor="#d1d1d1"
     inkscape:document-units="mm"
     showgrid="false" /><defs
     id="defs2" /><g
     inkscape:label="Camada 1"
     inkscape:groupmode="layer"
     id="layer1"
     transform="translate(-0.10813012,-0.0606535)"><path
       d="M 1.4417942,2.8787228 V 1.3187202 H 0.56801432 c -0.25293632,0 -0.4598842,0.2264519 -0.4598842,0.5032267 v 1.50968 c 0,0.2767746 0.20694788,0.5032265 0.4598842,0.5032265 H 0.79795645 V 4.5896933 L 1.4877826,3.8348534 h 1.1497101 c 0.2529368,0 0.4598845,-0.2264519 0.4598845,-0.5032265 V 2.8736907 a 0.21683538,0.23727137 0 0 1 -0.045991,0.00529 H 1.4417942 Z M 4.2470878,0.0606535 H 2.1776089 c -0.2529364,0 -0.4598842,0.22645199 -0.4598842,0.50322669 V 2.5767869 H 3.327319 l 0.6898261,0.75484 v -0.75484 h 0.2299427 c 0.2529358,0 0.4598837,-0.2262005 0.4598837,-0.5032267 V 0.56388019 c 0,-0.2767747 -0.2069479,-0.50322669 -0.4598837,-0.50322669 z"
       id="path9"
       style="stroke-width:0.240533" /></g></svg>
