<?xml version="1.0" encoding="UTF-8" standalone="no"?>
<!-- Created with Inkscape (http://www.inkscape.org/) -->

<svg
   width="17.780352"
   height="17.38505"
   viewBox="0 0 4.7043846 4.5997944"
   version="1.1"
   id="svg5"
   xml:space="preserve"
   xmlns:inkscape="http://www.inkscape.org/namespaces/inkscape"
   xmlns:sodipodi="http://sodipodi.sourceforge.net/DTD/sodipodi-0.dtd"
   xmlns="http://www.w3.org/2000/svg"
   xmlns:svg="http://www.w3.org/2000/svg"><sodipodi:namedview
     id="namedview7"
     pagecolor="#ffffff"
     bordercolor="#000000"
     borderopacity="0.25"
     inkscape:showpageshadow="2"
     inkscape:pageopacity="0.0"
     inkscape:pagecheckerboard="0"
     inkscape:deskcolor="#d1d1d1"
     inkscape:document-units="mm"
     showgrid="false" /><defs
     id="defs2" /><g
     inkscape:label="Camada 1"
     inkscape:groupmode="layer"
     id="layer1"
     transform="translate(-0.05484448,-0.0866051)"><g
       id="g43"
       transform="matrix(0.01033086,0,0,0.01093072,-0.23763134,-0.4117975)"><g
         id="Layer_1" /><g
         id="Layer_2"><g
           id="g24"><g
             id="g14"><path
               class="st0"
               d="m 480.88,119.6 c -19.2,-28.05 -43.16,-52 -71.2,-71.2 -7.29,-4.99 -17.25,-3.13 -22.24,4.16 -4.99,7.29 -3.13,17.25 4.16,22.24 24.76,16.95 45.92,38.11 62.87,62.87 3.1,4.53 8.11,6.96 13.22,6.96 3.11,0 6.26,-0.91 9.02,-2.8 7.3,-4.99 9.17,-14.94 4.17,-22.23 z"
               id="path12" /></g><g
             id="g18"><path
               class="st0"
               d="m 120.39,74.8 c 7.29,-4.99 9.16,-14.95 4.16,-22.24 -5,-7.29 -14.95,-9.16 -22.24,-4.16 -28.04,19.2 -52,43.15 -71.2,71.2 -4.99,7.29 -3.13,17.25 4.16,22.24 2.76,1.89 5.91,2.8 9.02,2.8 5.1,0 10.12,-2.44 13.22,-6.96 16.97,-24.77 38.12,-45.93 62.88,-62.88 z"
               id="path16" /></g><g
             id="g22"><path
               class="st0"
               d="m 404.63,389.28 c 25.01,-31.99 39.91,-72.25 39.91,-116 0,-104.13 -84.41,-188.54 -188.54,-188.54 -104.13,0 -188.54,84.41 -188.54,188.54 0,43.75 14.9,84.02 39.91,116 l -44.71,44.71 c -6.25,6.25 -6.25,16.38 0,22.63 3.12,3.12 7.22,4.69 11.31,4.69 4.09,0 8.19,-1.56 11.31,-4.69 l 43.86,-43.86 c 33.49,30.49 78,49.06 126.85,49.06 48.85,0 93.36,-18.58 126.85,-49.06 l 48.96,48.96 c 3.12,3.12 7.22,4.69 11.31,4.69 4.09,0 8.19,-1.56 11.31,-4.69 6.25,-6.25 6.25,-16.38 0,-22.63 z m -89.86,-57.23 c -3.12,3.12 -7.22,4.69 -11.31,4.69 -4.09,0 -8.19,-1.56 -11.31,-4.69 l -47.46,-47.46 c -3,-3 -4.69,-7.07 -4.69,-11.31 v -81.91 c 0,-8.84 7.16,-16 16,-16 8.84,0 16,7.16 16,16 v 75.28 l 42.77,42.77 c 6.25,6.25 6.25,16.38 0,22.63 z"
               id="path20" /></g></g></g></g></g><style
     type="text/css"
     id="style9">
	.st0{fill:#333333;}
	.st1{fill:none;stroke:#333333;stroke-width:32;stroke-linecap:round;stroke-linejoin:round;stroke-miterlimit:10;}
</style></svg>
